<svg width="512" height="512" viewBox="0 0 512 512" fill="none" xmlns="http://www.w3.org/2000/svg">
<g clip-path="url(#clip0_416_163)">
<path d="M512 486.4C512 500.536 500.536 512 486.4 512H25.6C11.464 512 0 500.536 0 486.4V40.96C0 26.824 11.464 15.36 25.6 15.36H486.4C500.536 15.36 512 26.824 512 40.96V486.4Z" fill="#2C2C2C"/>
<path d="M512 471.04C512 485.176 500.536 496.64 486.4 496.64H25.6C11.464 496.64 0 485.176 0 471.04V25.6C0 11.464 11.464 0 25.6 0H486.4C500.536 0 512 11.464 512 25.6V471.04Z" fill="#1E1E1E"/>
<path d="M246.413 340.889C233.602 386.549 223.019 424.903 222.241 430.114C220.146 444.134 199.437 441.878 200.619 427.643C201.103 423.372 209.671 391.786 220.172 354.238C205.346 361.141 193.152 365.599 185.632 366.539C175.426 368.204 166.831 362.376 167.69 353.513C167.886 351.783 168.491 350.125 169.456 348.677C170.422 347.228 171.719 346.031 173.24 345.186C174.761 344.34 176.462 343.869 178.202 343.813C179.941 343.757 181.669 344.118 183.242 344.864C189.688 343.951 206.233 337.156 227.961 325.875C238.839 287.172 250.12 247.582 255.76 227.921C260.246 214.653 279.933 220.266 276.656 233.884C269.969 257.251 262.206 284.486 254.686 311.156C264.06 305.785 273.997 299.715 283.962 293.242C338.27 258.137 375.282 224.564 382.749 203.157C385.434 195.1 383.501 191.474 379.526 188.385C370.018 180.999 340.741 180.086 287.158 199.666C206.85 228.969 121.977 285.882 113.892 315.561C117.572 315.884 121.601 315.561 124.475 318.462C125.821 319.683 126.843 321.22 127.447 322.934C128.052 324.649 128.221 326.486 127.938 328.282C127.656 330.078 126.931 331.775 125.83 333.221C124.728 334.667 123.284 335.816 121.628 336.565C109.461 340.889 87.7586 331.677 92.4321 312.016C97.8038 286.688 132.425 258.943 160.465 239.981C197.742 215.168 237.78 194.78 279.772 179.226C318.1 165.179 368.836 152.502 392.928 171.169C404.182 179.951 408.264 192.656 404.424 206.756C399.482 225.128 377.726 257.519 302.145 307.342C283.291 319.778 263.979 331.274 246.413 340.889Z" fill="#F3F3F3"/>
<path d="M468 454.78H50.0796V472.804H468V454.78Z" fill="#F3F3F3"/>
<path d="M215.263 182.454C208.841 187.118 202.081 190.675 196.262 195.592C189.453 201.337 183.696 207.852 179.671 215.847C176.161 222.827 168.772 223.436 162.601 225.922C161.848 226.228 160.47 225.331 159.509 224.768C141.363 213.824 123.195 202.939 105.178 191.84C101.232 189.411 98.4249 189.018 94.352 192.135C86.1441 198.396 75.5788 197.32 68.9777 190.468C62.0987 183.32 61.1278 172.692 66.6555 164.924C74.4966 153.901 92.6239 154.144 98.7454 166.13C102.157 172.782 106.3 174.09 112.985 173.84C124.858 173.406 136.765 173.892 148.656 173.893C153.602 173.889 154.245 172.942 152.253 168.401C146.05 154.21 139.661 140.101 133.583 125.855C131.957 122.039 128.925 121.301 125.567 120.436C113.347 117.33 107.14 104.027 112.518 92.6079C116.056 85.0733 125.994 80.343 134.307 82.2339C143.241 84.2467 149.966 92.4475 149.368 101.351C149.041 106.049 150.533 108.718 154.694 111.077C173.539 121.763 192.163 132.842 210.897 143.725C214.937 146.088 216.302 145.439 216.995 140.679C220.136 119.73 223.155 98.7841 226.346 77.837C227.054 73.1686 226.254 69.6055 222.709 66.0158C217.041 60.2806 215.244 53.0436 218.43 45.2694C221.536 37.703 227.842 34.123 235.594 33.3308C242.828 32.5935 248.653 35.6011 252.646 41.7267C257.146 48.6147 257.988 55.9753 253.133 62.8079C250.05 67.1149 250.275 70.4876 252.6 74.8338C260.288 89.2101 267.695 103.734 275.155 118.21C276.664 121.142 278.415 123.057 281.281 119.658C291.729 107.171 302.082 94.5774 312.56 82.1015C315.255 78.8754 315.62 75.8351 314.126 71.8133C307.934 55.1802 321.851 44.9866 332.196 45.2229C342.49 45.4567 350.585 53.1307 351.646 63.571C352.6 72.9258 346.034 81.863 335.629 83.8443C330.655 84.796 329.041 87.1781 327.91 91.6133C322.154 114.006 316.106 136.355 310.13 158.696C309.324 161.684 299.138 168.148 296.452 167.358C294.164 166.688 295.406 164.862 295.707 163.696C298.014 154.535 300.43 145.4 302.847 136.265C304.765 129.023 306.772 121.815 308.63 114.549C308.971 113.194 309.763 111.295 308.373 110.428C306.551 109.307 305.452 111.291 304.477 112.433C296.803 121.315 289.219 130.231 281.585 139.145C280.524 140.374 279.365 141.547 278.372 142.82C275.872 145.985 274.299 145.543 272.531 141.961C264.806 126.321 256.904 110.784 249.014 95.2159C247.093 91.4553 244.998 87.7466 242.921 84.0791C242.31 82.9683 241.802 81.4186 240.241 81.5624C238.303 81.7478 238.405 83.5497 238.192 84.9724C236.148 99.1634 234.163 113.378 232.089 127.557C230.329 139.481 228.39 151.386 226.731 163.315C226.248 166.702 225.141 167.041 222.336 165.416C199.555 152.099 176.718 138.881 153.905 125.603C153.209 125.195 152.538 124.676 151.787 124.366C150.768 123.952 149.551 123.255 148.572 124.054C147.508 124.939 148.12 126.221 148.534 127.221C150.177 131.301 151.882 135.354 153.678 139.391C159.942 153.554 166.269 167.691 172.533 181.854C174.683 186.696 174.337 187.143 169.222 187.099C157.336 186.997 145.447 186.946 133.55 186.874C132.41 186.857 131.256 186.92 130.138 187.066C129.183 187.19 127.938 187.269 127.859 188.436C127.808 189.049 128.541 189.934 129.157 190.328C139.966 197.007 150.766 203.666 161.651 210.239C163.963 211.637 165.893 210.593 167.746 208.869C180.416 197.179 195.617 189.745 211.302 183.133C212.334 182.68 213.41 181.765 215.263 182.454ZM338.018 62.3624C336.643 59.0026 332.878 57.3804 329.553 58.6672C326.34 59.9293 324.605 63.9405 325.876 67.1739C327.12 70.3454 331.163 72.0422 334.426 70.7826C337.822 69.4893 339.403 65.7428 338.018 62.3624ZM87.6772 173.671C86.1362 170.383 81.8672 168.958 78.6045 170.611C75.5392 172.153 74.2955 176.219 75.9242 179.37C77.5256 182.458 81.7212 183.941 84.6213 182.471C87.5743 180.954 89.0733 176.628 87.6772 173.671ZM242.592 50.176C241.257 47.0201 237.256 45.4769 234.018 46.8488C230.759 48.2297 229.179 52.1478 230.592 55.3681C232.014 58.6091 235.944 60.1589 239.144 58.7548C242.323 57.3597 243.928 53.3319 242.592 50.176ZM135.794 99.0852C134.418 95.7254 130.594 94.08 127.396 95.6558C123.979 97.3518 122.861 100.132 124.236 103.714C125.574 107.213 129.215 108.89 132.499 107.621C135.647 106.437 137.17 102.445 135.794 99.0852Z" fill="#F3F3F3"/>
</g>
<defs>
<clipPath id="clip0_416_163">
<rect width="512" height="512" fill="white"/>
</clipPath>
</defs>
</svg>
