<svg width="939" height="1217" viewBox="0 0 939 1217" fill="none" xmlns="http://www.w3.org/2000/svg">
<path d="M136.516 697.045L492.791 525.129L849.066 697.045V1040.6L492.791 1212.52L136.516 1040.6V697.045Z" fill="#CC0000"/>
<path d="M502.781 868.684L834.083 710.566L847.402 1029.29L502.781 1201.75V868.684Z" fill="white"/>
<path d="M839.077 700.908L838.078 1038.67L492.458 1204.79L490.793 872.824L839.077 700.908ZM548.396 900.418L549.395 1122.28L664.269 1066.82L663.936 899.591L721.872 871.168V1038.94L779.809 1010.8L780.142 786.176L548.396 900.418Z" fill="#CC0000"/>
<path d="M515.434 527.613C499.451 520.162 473.813 520.162 457.83 527.613L142.177 678.005C126.195 685.455 113.542 704.22 113.542 719.121V1019.9C113.542 1035.08 126.528 1053.57 142.177 1061.02L457.83 1211.41C473.813 1218.86 499.451 1218.86 515.434 1211.41L831.087 1061.02C847.069 1053.57 859.722 1034.81 859.722 1019.9V719.121C859.722 703.944 846.736 685.455 831.087 678.005L515.434 527.613ZM795.459 684.903C811.442 692.354 811.442 704.771 795.459 712.222L519.096 843.849C503.114 851.3 477.475 851.3 461.493 843.849L181.134 710.29C165.152 702.84 165.152 690.422 181.134 682.972L457.497 551.344C473.48 543.894 499.118 543.894 515.101 551.344L795.459 684.903ZM138.182 740.921C138.182 725.744 151.167 719.673 166.817 727.123L449.506 861.786C465.488 869.237 478.141 888.001 478.141 902.902V1170.02C478.141 1185.2 465.156 1191.27 449.506 1183.82L166.817 1049.15C150.834 1041.7 138.182 1022.94 138.182 1008.04V740.921ZM532.082 1179.68C516.1 1187.13 503.447 1181.06 503.447 1165.88V902.902C503.447 887.725 516.433 869.237 532.082 861.786L806.447 731.263C822.429 723.812 835.082 729.883 835.082 745.06V1008.04C835.082 1023.22 822.096 1041.7 806.447 1049.15L532.082 1179.68Z" fill="#910505"/>
<path d="M230.691 464.578L409.44 441.532C384.493 336.023 276.086 283.071 207.331 212.101C237.512 296.943 243.309 381.041 230.691 464.578Z" fill="#FFE680"/>
<path d="M252.843 461.449L431.589 438.388C406.629 332.88 298.215 279.938 229.45 208.973C259.642 293.812 265.45 377.911 252.843 461.449Z" fill="#FF932A"/>
<path d="M259.427 378.53C322.85 352.578 328.129 334.497 346.805 312.346C294.894 263.708 260.695 236.386 236.05 226.46C247.154 274.976 251.09 290.134 259.427 378.53Z" fill="#FFB041"/>
<path d="M280.221 215.668C284.812 242.051 268.129 265.876 242.96 268.884C217.791 271.891 193.666 252.942 189.076 226.559C184.486 200.176 201.168 176.35 226.337 173.343C251.506 170.335 275.631 189.285 280.221 215.668Z" fill="#FF932A"/>
<path d="M258.022 215.417C261.09 233.053 249.929 248.981 233.093 250.993C216.256 253.005 200.12 240.339 197.052 222.703C193.983 205.067 205.145 189.139 221.981 187.127C238.818 185.115 254.954 197.781 258.022 215.417Z" fill="#FFB041"/>
<path d="M241.764 213.867C243.711 225.058 236.094 235.228 224.751 236.584C213.408 237.939 202.634 229.966 200.687 218.775C198.74 207.584 206.357 197.413 217.7 196.058C229.043 194.702 239.817 202.676 241.764 213.867Z" fill="#FFE680"/>
<path d="M733.925 460.914L554.256 443.466C574.388 337.253 680.311 280.954 745.791 207.887C719.488 293.611 717.518 377.831 733.925 460.914Z" fill="#FFE680"/>
<path d="M711.688 458.463L532.02 441C552.166 334.787 658.096 278.497 723.585 205.435C697.272 291.157 695.291 375.378 711.688 458.463Z" fill="#FF932A"/>
<path d="M701.258 375.827C636.701 351.874 632.834 331.321 613.165 309.769C662.828 259.545 693.529 233.823 717.706 223.134C708.815 271.963 705.571 287.233 701.258 375.827Z" fill="#FFB041"/>
<path d="M673.146 213.727C669.758 240.235 687.512 263.523 712.8 265.742C738.088 267.962 761.334 248.273 764.722 221.765C768.109 195.258 750.356 171.97 725.068 169.75C699.78 167.531 676.534 187.22 673.146 213.727Z" fill="#FF932A"/>
<path d="M695.372 212.78C693.107 230.499 704.985 246.067 721.901 247.552C738.817 249.037 754.365 235.876 756.63 218.157C758.894 200.438 747.017 184.87 730.101 183.385C713.185 181.9 697.636 195.061 695.372 212.78Z" fill="#FFB041"/>
<path d="M711.407 210.736C709.97 221.98 718.044 231.906 729.441 232.906C740.837 233.906 751.241 225.602 752.678 214.359C754.115 203.115 746.041 193.189 734.644 192.189C723.248 191.188 712.844 199.492 711.407 210.736Z" fill="#FFE680"/>
<path d="M800.626 545.314C600.654 583.294 397.88 593.807 175.487 545.314V546.251L215.317 668.879C214.478 671.446 214.028 674.035 214.028 676.666C214.028 721.536 338.911 757.894 492.969 757.894C647.026 757.894 771.91 721.536 771.91 676.666C771.91 674.763 771.685 672.877 771.243 671.007L800.626 545.357V545.314Z" fill="#FFA600"/>
<path d="M475.838 45.9062C475.838 45.9062 354.935 437.325 301.065 448.964C247.194 460.603 67.5148 258.47 67.5148 258.47L175.42 546.09V545.279C458.67 600.31 624.167 576.055 800.664 545.279L876.202 265.618C876.202 265.618 699.719 462.715 650.656 448.964C601.592 435.213 475.838 45.9062 475.838 45.9062Z" fill="#FFD42A"/>
<path d="M773.083 573.836C551.181 665.068 371.548 636.021 197.268 573.836V574.487L233.955 659.83C233.182 661.617 232.768 663.418 232.768 665.249C232.768 696.477 347.798 721.779 489.7 721.779C631.603 721.779 746.633 696.477 746.633 665.249C746.633 663.925 746.425 662.612 746.019 661.311L773.083 573.866V573.836Z" fill="#FFD42A"/>
<path d="M474.343 103.076C474.343 103.076 404.104 480.332 310.4 475.636C216.697 470.939 105.569 307.551 105.569 307.551L203.022 584.225V583.445C480.508 626.646 628.788 603.848 767.708 583.445L835.93 314.427C835.93 314.427 751.741 488.021 648.488 463.003C545.235 437.985 474.343 103.076 474.343 103.076Z" fill="#FFA600"/>
<path d="M551.011 70.8269C551.011 89.6113 543.185 107.626 529.254 120.909C515.323 134.192 496.428 141.654 476.727 141.654C457.025 141.654 438.131 134.192 424.2 120.909C410.268 107.626 402.442 89.6113 402.442 70.8269C402.442 52.0424 410.268 34.0273 424.2 20.7447C438.131 7.46211 457.025 0 476.727 0C496.428 0 515.323 7.46211 529.254 20.7447C543.185 34.0273 551.011 52.0424 551.011 70.8269Z" fill="#FFA600"/>
<path d="M513.608 58.9205C513.608 70.1235 508.507 80.8678 499.427 88.7895C490.348 96.7113 478.033 101.162 465.192 101.162C452.352 101.162 440.037 96.7113 430.958 88.7895C421.878 80.8678 416.777 70.1235 416.777 58.9205C416.777 47.7174 421.878 36.9732 430.958 29.0514C440.037 21.1296 452.352 16.6792 465.192 16.6792C478.033 16.6792 490.348 21.1296 499.427 29.0514C508.507 36.9732 513.608 47.7174 513.608 58.9205Z" fill="#FFD42A"/>
<path d="M484.909 55.3321C484.909 62.4287 481.928 69.2347 476.622 74.2528C471.315 79.2709 464.119 82.09 456.614 82.09C449.11 82.09 441.913 79.2709 436.607 74.2528C431.301 69.2347 428.32 62.4287 428.32 55.3321C428.32 48.2355 431.301 41.4295 436.607 36.4114C441.913 31.3934 449.11 28.5742 456.614 28.5742C464.119 28.5742 471.315 31.3934 476.622 36.4114C481.928 41.4295 484.909 48.2355 484.909 55.3321Z" fill="white"/>
<path d="M475.087 165.002C470.816 163.313 435.251 445.13 337.06 488.614C238.869 532.099 124.57 341.535 124.57 341.535L205.538 558.045C377.15 595.269 618.369 571.666 764.901 552.785L813.247 369.731C813.247 369.731 762.55 505.881 647.304 478.175C532.058 450.468 475.087 165.002 475.087 165.002Z" fill="url(#paint0_radial_190_3)"/>
<path d="M792.704 562.012C595.262 600.098 400.802 612.129 181.223 563.501L181.582 564.141L214.8 685.922C213.971 688.497 213.527 691.092 213.527 693.731C213.527 738.727 336.831 775.186 488.939 775.186C641.048 775.186 770.449 729.042 770.449 684.046C770.449 682.138 770.735 679.404 770.298 677.529C781.429 653.438 786.105 603.945 796.769 562.054L792.704 562.012Z" fill="#FFD42A"/>
<g filter="url(#filter0_f_190_3)">
<path d="M785.319 569.144C588.336 607.23 394.329 619.261 175.261 570.632L175.62 571.273L208.76 693.054C207.933 695.628 207.491 698.224 207.491 700.863C207.491 745.859 330.507 782.318 482.261 782.318C634.016 782.318 763.115 736.173 763.115 691.177C763.115 689.27 763.401 686.535 762.965 684.66C774.071 660.57 778.735 611.077 789.375 569.186L785.319 569.144Z" fill="#FFA600"/>
</g>
<path d="M293.56 727.604L272.175 719.682L256.392 610.103L276.577 606.086C252.807 603.096 228.76 599.55 204.374 595.364L204.729 595.843L235.851 684.273C235.075 686.143 234.651 688.031 234.651 689.947C234.651 704.244 256.748 717.379 293.56 727.604Z" fill="url(#paint1_linear_190_3)"/>
<g opacity="0.69154" filter="url(#filter1_f_190_3)">
<path d="M337.528 737.172L300.092 608.8C292.27 607.934 284.456 607.102 276.573 606.11L256.388 610.127L272.171 719.707L293.557 727.629C293.569 727.632 293.588 727.625 293.601 727.629C306.486 731.206 321.361 734.374 337.528 737.172Z" fill="white"/>
</g>
<path d="M364.07 741.063L347.22 613.244C331.586 611.982 315.87 610.543 300.003 608.786L337.439 737.157C345.834 738.61 354.932 739.846 364.07 741.063Z" fill="#FFD42A"/>
<path opacity="0.68317" d="M421.946 746.691L372.552 615.078C364.14 614.534 355.683 613.92 347.209 613.236L364.06 741.054C382.101 743.456 401.492 745.339 421.946 746.691Z" fill="white"/>
<path d="M653.051 733.95L670.568 607.899C573.172 618.091 475.135 621.717 372.639 615.084L422.034 746.698C444.556 748.188 468.053 749.13 492.682 749.13C552.373 749.13 608.174 743.188 653.051 733.95Z" fill="url(#paint2_radial_190_3)"/>
<g opacity="0.75743" filter="url(#filter2_f_190_3)">
<path d="M700.37 721.65V604.479C690.431 605.655 680.487 606.865 670.538 607.906L653.021 733.956C653.224 733.914 653.44 733.888 653.643 733.846C671.067 730.239 686.744 726.121 700.37 721.65Z" fill="white"/>
</g>
<path opacity="0.88557" d="M777.328 594.331C751.663 598.168 726.043 601.469 700.412 604.501V721.671C735.218 710.252 756.432 696.549 756.432 682.946C756.432 681.56 756.707 679.591 756.298 678.23C766.728 660.734 771.115 624.79 781.107 594.368L777.328 594.331Z" fill="url(#paint3_linear_190_3)"/>
<path d="M790.431 268.535C790.431 287.319 798.257 305.334 812.189 318.617C826.12 331.9 845.014 339.362 864.716 339.362C884.417 339.362 903.312 331.9 917.243 318.617C931.174 305.334 939 287.319 939 268.535C939 249.75 931.174 231.735 917.243 218.453C903.312 205.17 884.417 197.708 864.716 197.708C845.014 197.708 826.12 205.17 812.189 218.453C798.257 231.735 790.431 249.75 790.431 268.535Z" fill="#FFA600"/>
<path d="M827.829 256.615C827.829 267.818 832.93 278.563 842.01 286.484C851.089 294.406 863.404 298.857 876.244 298.857C889.085 298.857 901.4 294.406 910.479 286.484C919.559 278.563 924.66 267.818 924.66 256.615C924.66 245.412 919.559 234.668 910.479 226.746C901.4 218.824 889.085 214.374 876.244 214.374C863.404 214.374 851.089 218.824 842.01 226.746C832.93 234.668 827.829 245.412 827.829 256.615Z" fill="#FFD42A"/>
<path d="M856.592 253.059C856.592 260.155 859.573 266.961 864.879 271.979C870.185 276.997 877.382 279.817 884.886 279.817C892.391 279.817 899.588 276.997 904.894 271.979C910.2 266.961 913.181 260.155 913.181 253.059C913.181 245.962 910.2 239.156 904.894 234.138C899.588 229.12 892.391 226.301 884.886 226.301C877.382 226.301 870.185 229.12 864.879 234.138C859.573 239.156 856.592 245.962 856.592 253.059Z" fill="white"/>
<path d="M148.569 278.075C148.569 296.86 140.743 314.875 126.811 328.158C112.88 341.44 93.9859 348.902 74.2845 348.902C54.583 348.902 35.6885 341.44 21.7574 328.158C7.82639 314.875 0 296.86 0 278.075C0 259.291 7.82639 241.276 21.7574 227.993C35.6885 214.711 54.583 207.249 74.2845 207.249C93.9859 207.249 112.88 214.711 126.811 227.993C140.743 241.276 148.569 259.291 148.569 278.075Z" fill="#FFA600"/>
<path d="M111.159 266.167C111.159 277.37 106.058 288.114 96.9781 296.036C87.8984 303.958 75.5838 308.408 62.7433 308.408C49.9028 308.408 37.5881 303.958 28.5085 296.036C19.4289 288.114 14.328 277.37 14.328 266.167C14.328 254.964 19.4289 244.22 28.5085 236.298C37.5881 228.376 49.9028 223.926 62.7433 223.926C75.5838 223.926 87.8984 228.376 96.9781 236.298C106.058 244.22 111.159 254.964 111.159 266.167Z" fill="#FFD42A"/>
<path d="M82.4108 262.587C82.4108 269.683 79.4298 276.489 74.1235 281.507C68.8172 286.525 61.6203 289.344 54.1161 289.344C46.6119 289.344 39.415 286.525 34.1087 281.507C28.8025 276.489 25.8214 269.683 25.8214 262.587C25.8214 255.49 28.8025 248.684 34.1087 243.666C39.415 238.648 46.6119 235.829 54.1161 235.829C61.6203 235.829 68.8172 238.648 74.1235 243.666C79.4298 248.684 82.4108 255.49 82.4108 262.587Z" fill="white"/>
<g opacity="0.47264" filter="url(#filter3_f_190_3)">
<path d="M208.082 550.952L254.593 558.788L172.278 421.698L208.082 550.952Z" fill="white"/>
</g>
<path d="M17.7667 314.845C37.9701 333.652 69.935 342.056 98.1242 333.859C134.012 323.422 150.109 290.112 134.084 259.472C133.111 257.613 132.025 255.831 130.868 254.08C131.045 255.128 131.3 256.179 131.4 257.225C131.588 259.172 131.638 261.108 131.569 263.04C131.5 264.972 131.308 266.896 130.991 268.799C130.673 270.703 130.23 272.584 129.671 274.447C129.113 276.31 128.435 278.164 127.643 279.973C126.85 281.782 125.948 283.548 124.93 285.29C123.911 287.032 122.769 288.734 121.532 290.396C120.295 292.058 118.948 293.681 117.5 295.25C116.052 296.82 114.504 298.356 112.853 299.82C111.201 301.285 109.431 302.679 107.583 304.025C105.736 305.371 103.803 306.657 101.767 307.871C99.7314 309.086 97.6277 310.231 95.4108 311.302C93.1939 312.372 90.8915 313.38 88.5013 314.293C86.1111 315.206 83.6325 316.036 81.0765 316.779C78.5206 317.523 75.9429 318.163 73.3546 318.698C70.7663 319.232 68.157 319.653 65.5536 319.985C62.9502 320.316 60.3309 320.544 57.7296 320.678C55.1284 320.812 52.5391 320.841 49.9573 320.784C47.3755 320.726 44.8064 320.593 42.2613 320.349C39.7163 320.105 37.1829 319.756 34.6918 319.332C32.2007 318.908 29.7367 318.394 27.3169 317.795C24.897 317.196 22.5427 316.511 20.2114 315.743C19.3809 315.469 18.5845 315.139 17.7667 314.845Z" fill="#FF932A"/>
<path d="M423.023 106.418C443.226 125.226 475.191 133.63 503.38 125.432C539.268 114.996 555.365 81.686 539.34 51.0462C538.367 49.1872 537.281 47.405 536.124 45.6538C536.301 46.7019 536.556 47.7526 536.656 48.7992C536.844 50.7461 536.894 52.6821 536.825 54.6139C536.756 56.5456 536.564 58.4695 536.247 60.3732C535.929 62.2768 535.486 64.1578 534.927 66.0205C534.369 67.8833 533.691 69.7382 532.899 71.547C532.106 73.3558 531.204 75.1213 530.186 76.8634C529.167 78.6054 528.025 80.3073 526.788 81.9697C525.551 83.6321 524.204 85.2543 522.756 86.8241C521.308 88.3939 519.76 89.9296 518.109 91.3939C516.457 92.8582 514.687 94.2532 512.839 95.599C510.992 96.9449 509.059 98.2304 507.023 99.445C504.987 100.66 502.884 101.805 500.667 102.875C498.45 103.946 496.148 104.953 493.757 105.867C491.367 106.78 488.888 107.61 486.333 108.353C483.777 109.096 481.199 109.737 478.611 110.271C476.022 110.806 473.413 111.227 470.81 111.558C468.206 111.89 465.587 112.118 462.986 112.252C460.384 112.386 457.795 112.415 455.213 112.357C452.632 112.3 450.062 112.166 447.517 111.923C444.972 111.679 442.439 111.33 439.948 110.906C437.457 110.481 434.993 109.967 432.573 109.368C430.153 108.77 427.799 108.084 425.467 107.317C424.637 107.043 423.84 106.713 423.023 106.418Z" fill="#FF932A"/>
<path d="M923.456 306.507C903.253 325.314 871.288 333.718 843.099 325.521C807.211 315.084 791.114 281.774 807.139 251.135C808.111 249.276 809.198 247.493 810.355 245.742C810.178 246.79 809.923 247.841 809.823 248.888C809.635 250.834 809.585 252.771 809.654 254.702C809.723 256.634 809.915 258.558 810.232 260.462C810.55 262.365 810.993 264.246 811.551 266.109C812.11 267.972 812.788 269.827 813.58 271.635C814.373 273.444 815.275 275.21 816.293 276.952C817.312 278.694 818.454 280.396 819.691 282.058C820.928 283.72 822.274 285.343 823.723 286.912C825.171 288.482 826.719 290.018 828.37 291.482C830.022 292.947 831.792 294.342 833.639 295.687C835.487 297.033 837.419 298.319 839.456 299.533C841.492 300.748 843.595 301.893 845.812 302.964C848.029 304.034 850.331 305.042 852.722 305.955C855.112 306.868 857.591 307.698 860.146 308.441C862.702 309.185 865.28 309.825 867.868 310.36C870.457 310.894 873.066 311.315 875.669 311.647C878.273 311.978 880.892 312.206 883.493 312.34C886.095 312.474 888.684 312.503 891.266 312.446C893.847 312.388 896.417 312.255 898.962 312.011C901.507 311.767 904.04 311.418 906.531 310.994C909.022 310.57 911.486 310.056 913.906 309.457C916.326 308.858 918.68 308.173 921.012 307.405C921.842 307.131 922.638 306.801 923.456 306.507Z" fill="#FF932A"/>
<g opacity="0.47264" filter="url(#filter4_f_190_3)">
<path d="M759.106 550.959L712.596 558.795L794.911 421.705L759.106 550.959Z" fill="white"/>
</g>
<path d="M368.477 470.788C368.477 484.055 362.875 496.779 352.902 506.16C342.93 515.541 329.405 520.812 315.302 520.812C301.199 520.812 287.673 515.541 277.701 506.16C267.728 496.779 262.126 484.055 262.126 470.788C262.126 457.521 267.728 444.797 277.701 435.416C287.673 426.035 301.199 420.764 315.302 420.764C329.405 420.764 342.93 426.035 352.902 435.416C362.875 444.797 368.477 457.521 368.477 470.788Z" fill="#800000"/>
<path d="M342.643 459.027C342.643 466.051 339.248 472.787 333.204 477.754C327.16 482.72 318.963 485.51 310.416 485.51C301.868 485.51 293.671 482.72 287.627 477.754C281.584 472.787 278.188 466.051 278.188 459.027C278.188 452.003 281.584 445.267 287.627 440.301C293.671 435.334 301.868 432.544 310.416 432.544C318.963 432.544 327.16 435.334 333.204 440.301C339.248 445.267 342.643 452.003 342.643 459.027Z" fill="#AA0000"/>
<path d="M320.032 444.867C320.032 447.833 318.504 450.677 315.784 452.774C313.065 454.871 309.376 456.049 305.53 456.049C301.683 456.049 297.995 454.871 295.275 452.774C292.555 450.677 291.027 447.833 291.027 444.867C291.027 441.902 292.555 439.058 295.275 436.961C297.995 434.864 301.683 433.686 305.53 433.686C309.376 433.686 313.065 434.864 315.784 436.961C318.504 439.058 320.032 441.902 320.032 444.867Z" fill="#FF2A2A"/>
<path d="M326.556 467.244C326.556 468.961 325.877 470.608 324.669 471.822C323.46 473.036 321.82 473.718 320.111 473.718C318.402 473.718 316.762 473.036 315.553 471.822C314.345 470.608 313.666 468.961 313.666 467.244C313.666 465.527 314.345 463.881 315.553 462.667C316.762 461.453 318.402 460.771 320.111 460.771C321.82 460.771 323.46 461.453 324.669 462.667C325.877 463.881 326.556 465.527 326.556 467.244Z" fill="#FF2A2A"/>
<path d="M302.347 476.069C302.347 478.254 301.328 480.35 299.515 481.895C297.702 483.44 295.243 484.308 292.679 484.308C290.114 484.308 287.655 483.44 285.842 481.895C284.029 480.35 283.01 478.254 283.01 476.069C283.01 473.884 284.029 471.788 285.842 470.243C287.655 468.698 290.114 467.83 292.679 467.83C295.243 467.83 297.702 468.698 299.515 470.243C301.328 471.788 302.347 473.884 302.347 476.069Z" fill="#FF2A2A"/>
<path d="M716.273 466.031C716.273 479.298 710.671 492.022 700.698 501.403C690.726 510.784 677.201 516.055 663.098 516.055C648.994 516.055 635.469 510.784 625.497 501.403C615.524 492.022 609.922 479.298 609.922 466.031C609.922 452.764 615.524 440.04 625.497 430.658C635.469 421.277 648.994 416.007 663.098 416.007C677.201 416.007 690.726 421.277 700.698 430.658C710.671 440.04 716.273 452.764 716.273 466.031Z" fill="#800000"/>
<path d="M690.425 454.255C690.425 461.279 687.03 468.015 680.986 472.982C674.942 477.948 666.745 480.738 658.198 480.738C649.651 480.738 641.453 477.948 635.41 472.982C629.366 468.015 625.97 461.279 625.97 454.255C625.97 447.231 629.366 440.495 635.41 435.529C641.453 430.562 649.651 427.772 658.198 427.772C666.745 427.772 674.942 430.562 680.986 435.529C687.03 440.495 690.425 447.231 690.425 454.255Z" fill="#AA0000"/>
<path d="M667.83 440.115C667.83 443.081 666.302 445.925 663.583 448.022C660.863 450.119 657.174 451.297 653.328 451.297C649.482 451.297 645.793 450.119 643.073 448.022C640.353 445.925 638.825 443.081 638.825 440.115C638.825 437.15 640.353 434.306 643.073 432.209C645.793 430.112 649.482 428.934 653.328 428.934C657.174 428.934 660.863 430.112 663.583 432.209C666.302 434.306 667.83 437.15 667.83 440.115Z" fill="#FF2A2A"/>
<path d="M674.38 462.495C674.38 464.212 673.701 465.858 672.493 467.072C671.284 468.286 669.644 468.968 667.935 468.968C666.226 468.968 664.586 468.286 663.377 467.072C662.169 465.858 661.49 464.212 661.49 462.495C661.49 460.778 662.169 459.131 663.377 457.917C664.586 456.703 666.226 456.021 667.935 456.021C669.644 456.021 671.284 456.703 672.493 457.917C673.701 459.131 674.38 460.778 674.38 462.495Z" fill="#FF2A2A"/>
<path d="M650.106 471.294C650.106 473.48 649.087 475.575 647.274 477.12C645.461 478.666 643.002 479.534 640.438 479.534C637.874 479.534 635.415 478.666 633.602 477.12C631.788 475.575 630.77 473.48 630.77 471.294C630.77 469.109 631.788 467.014 633.602 465.468C635.415 463.923 637.874 463.055 640.438 463.055C643.002 463.055 645.461 463.923 647.274 465.468C649.087 467.014 650.106 469.109 650.106 471.294Z" fill="#FF2A2A"/>
<path d="M542.26 454.085C542.26 467.353 536.658 480.076 526.685 489.458C516.713 498.839 503.188 504.109 489.085 504.109C474.982 504.109 461.456 498.839 451.484 489.458C441.511 480.076 435.909 467.353 435.909 454.085C435.909 440.818 441.511 428.094 451.484 418.713C461.456 409.332 474.982 404.062 489.085 404.062C503.188 404.062 516.713 409.332 526.685 418.713C536.658 428.094 542.26 440.818 542.26 454.085Z" fill="#800000"/>
<path d="M509.319 442.317C509.319 449.341 505.924 456.077 499.88 461.044C493.836 466.01 485.639 468.8 477.092 468.8C468.544 468.8 460.347 466.01 454.303 461.044C448.26 456.077 444.864 449.341 444.864 442.317C444.864 435.293 448.26 428.557 454.303 423.591C460.347 418.624 468.544 415.834 477.092 415.834C485.639 415.834 493.836 418.624 499.88 423.591C505.924 428.557 509.319 435.293 509.319 442.317Z" fill="#AA0000"/>
<path d="M486.783 428.221C486.783 431.187 485.255 434.031 482.535 436.128C479.815 438.225 476.127 439.403 472.28 439.403C468.434 439.403 464.745 438.225 462.026 436.128C459.306 434.031 457.778 431.187 457.778 428.221C457.778 425.255 459.306 422.411 462.026 420.314C464.745 418.217 468.434 417.039 472.28 417.039C476.127 417.039 479.815 418.217 482.535 420.314C485.255 422.411 486.783 425.255 486.783 428.221Z" fill="#FF2A2A"/>
<path d="M493.274 450.582C493.274 452.299 492.595 453.946 491.386 455.16C490.177 456.374 488.538 457.056 486.829 457.056C485.119 457.056 483.48 456.374 482.271 455.16C481.062 453.946 480.383 452.299 480.383 450.582C480.383 448.865 481.062 447.219 482.271 446.005C483.48 444.79 485.119 444.108 486.829 444.108C488.538 444.108 490.177 444.79 491.386 446.005C492.595 447.219 493.274 448.865 493.274 450.582Z" fill="#FF2A2A"/>
<path d="M469.013 459.403C469.013 461.588 467.994 463.684 466.181 465.229C464.368 466.774 461.909 467.642 459.344 467.642C456.78 467.642 454.321 466.774 452.508 465.229C450.695 463.684 449.676 461.588 449.676 459.403C449.676 457.218 450.695 455.122 452.508 453.577C454.321 452.032 456.78 451.164 459.344 451.164C461.909 451.164 464.368 452.032 466.181 453.577C467.994 455.122 469.013 457.218 469.013 459.403Z" fill="#FF2A2A"/>
<defs>
<filter id="filter0_f_190_3" x="125.967" y="519.849" width="712.702" height="311.763" filterUnits="userSpaceOnUse" color-interpolation-filters="sRGB">
<feFlood flood-opacity="0" result="BackgroundImageFix"/>
<feBlend mode="normal" in="SourceGraphic" in2="BackgroundImageFix" result="shape"/>
<feGaussianBlur stdDeviation="24.6471" result="effect1_foregroundBlur_190_3"/>
</filter>
<filter id="filter1_f_190_3" x="253.516" y="603.239" width="86.8828" height="136.805" filterUnits="userSpaceOnUse" color-interpolation-filters="sRGB">
<feFlood flood-opacity="0" result="BackgroundImageFix"/>
<feBlend mode="normal" in="SourceGraphic" in2="BackgroundImageFix" result="shape"/>
<feGaussianBlur stdDeviation="1.43575" result="effect1_foregroundBlur_190_3"/>
</filter>
<filter id="filter2_f_190_3" x="650.229" y="601.687" width="52.9338" height="135.062" filterUnits="userSpaceOnUse" color-interpolation-filters="sRGB">
<feFlood flood-opacity="0" result="BackgroundImageFix"/>
<feBlend mode="normal" in="SourceGraphic" in2="BackgroundImageFix" result="shape"/>
<feGaussianBlur stdDeviation="1.39604" result="effect1_foregroundBlur_190_3"/>
</filter>
<filter id="filter3_f_190_3" x="168.031" y="417.451" width="90.809" height="145.584" filterUnits="userSpaceOnUse" color-interpolation-filters="sRGB">
<feFlood flood-opacity="0" result="BackgroundImageFix"/>
<feBlend mode="normal" in="SourceGraphic" in2="BackgroundImageFix" result="shape"/>
<feGaussianBlur stdDeviation="2.1235" result="effect1_foregroundBlur_190_3"/>
</filter>
<filter id="filter4_f_190_3" x="708.349" y="417.458" width="90.8089" height="145.584" filterUnits="userSpaceOnUse" color-interpolation-filters="sRGB">
<feFlood flood-opacity="0" result="BackgroundImageFix"/>
<feBlend mode="normal" in="SourceGraphic" in2="BackgroundImageFix" result="shape"/>
<feGaussianBlur stdDeviation="2.1235" result="effect1_foregroundBlur_190_3"/>
</filter>
<radialGradient id="paint0_radial_190_3" cx="0" cy="0" r="1" gradientUnits="userSpaceOnUse" gradientTransform="translate(458.746 475.795) rotate(2.51538) scale(344.187 350.186)">
<stop stop-color="#FFD42A"/>
<stop offset="1" stop-color="#FFD42A" stop-opacity="0"/>
</radialGradient>
<linearGradient id="paint1_linear_190_3" x1="204.374" y1="661.484" x2="293.56" y2="661.484" gradientUnits="userSpaceOnUse">
<stop stop-color="#FFD42A"/>
<stop offset="1" stop-color="#FFD42A" stop-opacity="0"/>
</linearGradient>
<radialGradient id="paint2_radial_190_3" cx="0" cy="0" r="1" gradientUnits="userSpaceOnUse" gradientTransform="translate(521.606 678.515) rotate(-0.544852) scale(354.262 70.617)">
<stop stop-color="#FFD42A"/>
<stop offset="1" stop-color="#FFD42A" stop-opacity="0"/>
</radialGradient>
<linearGradient id="paint3_linear_190_3" x1="700.412" y1="658.001" x2="781.107" y2="658.001" gradientUnits="userSpaceOnUse">
<stop stop-color="#FFD42A"/>
<stop offset="1" stop-color="#FFD42A" stop-opacity="0"/>
</linearGradient>
</defs>
</svg>
