<svg width="338" height="189" viewBox="0 0 338 189" fill="none" xmlns="http://www.w3.org/2000/svg">
<g filter="url(#filter0_dd_400_187)">
<rect x="17" y="14" width="303.4" height="154.07" rx="3.73331" fill="white"/>
</g>
<ellipse cx="185.291" cy="72.4677" rx="6.32082" ry="6.32082" fill="#FF748C"/>
<ellipse cx="185.291" cy="111.183" rx="6.32082" ry="6.32082" fill="#FF748C"/>
<path fill-rule="evenodd" clip-rule="evenodd" d="M94.0351 146.738C124.799 146.738 149.737 121.799 149.737 91.0352C149.737 60.2717 124.799 35.3329 94.0351 35.3329C63.2716 35.3329 38.3328 60.2717 38.3328 91.0352C38.3328 121.799 63.2716 146.738 94.0351 146.738ZM94.034 128.17C114.543 128.17 131.169 111.544 131.169 91.035C131.169 70.5259 114.543 53.9 94.034 53.9C73.525 53.9 56.8991 70.5259 56.8991 91.035C56.8991 111.544 73.525 128.17 94.034 128.17Z" fill="#FF748C"/>
<path fill-rule="evenodd" clip-rule="evenodd" d="M38.3328 91.0352H56.8991C56.8991 91.0351 56.8991 91.0351 56.8991 91.035C56.8991 70.5259 73.525 53.9 94.034 53.9C94.0344 53.9 94.0348 53.9 94.0351 53.9V35.3329C63.2716 35.3329 38.3328 60.2717 38.3328 91.0352Z" fill="#FFDFE5"/>
<rect x="202.28" y="64.9618" width="94.8125" height="15.012" rx="7.506" fill="#E4EFFF"/>
<rect x="202.28" y="103.677" width="94.8125" height="15.012" rx="7.506" fill="#E4EFFF"/>
<defs>
<filter id="filter0_dd_400_187" x="0.200122" y="0.933428" width="337" height="187.67" filterUnits="userSpaceOnUse" color-interpolation-filters="sRGB">
<feFlood flood-opacity="0" result="BackgroundImageFix"/>
<feColorMatrix in="SourceAlpha" type="matrix" values="0 0 0 0 0 0 0 0 0 0 0 0 0 0 0 0 0 0 127 0" result="hardAlpha"/>
<feMorphology radius="1.86665" operator="dilate" in="SourceAlpha" result="effect1_dropShadow_400_187"/>
<feOffset dy="3.73331"/>
<feGaussianBlur stdDeviation="7.46661"/>
<feColorMatrix type="matrix" values="0 0 0 0 0.039009 0 0 0 0 0.13338 0 0 0 0 0.232469 0 0 0 0.08 0"/>
<feBlend mode="normal" in2="BackgroundImageFix" result="effect1_dropShadow_400_187"/>
<feColorMatrix in="SourceAlpha" type="matrix" values="0 0 0 0 0 0 0 0 0 0 0 0 0 0 0 0 0 0 127 0" result="hardAlpha"/>
<feOffset/>
<feGaussianBlur stdDeviation="1.86665"/>
<feColorMatrix type="matrix" values="0 0 0 0 0.0392157 0 0 0 0 0.133333 0 0 0 0 0.231373 0 0 0 0.04 0"/>
<feBlend mode="normal" in2="effect1_dropShadow_400_187" result="effect2_dropShadow_400_187"/>
<feBlend mode="normal" in="SourceGraphic" in2="effect2_dropShadow_400_187" result="shape"/>
</filter>
</defs>
</svg>
