<svg width="287" height="243" viewBox="0 0 287 243" fill="none" xmlns="http://www.w3.org/2000/svg">
<path d="M143.054 67.0551C216.1 67.0551 218.887 136.821 214.22 153.621L141.421 192.588C120.421 182.477 77.1612 160.108 72.1212 151.521C65.8212 140.788 73.2878 67.0551 143.054 67.0551Z" fill="#FF748C"/>
<path d="M112.021 141.955C108.521 135.888 109.687 105.321 112.721 93.8882C102.921 107.655 105.565 131.066 106.654 141.955C109.61 143.977 114.821 146.808 112.021 141.955Z" fill="#FF748C"/>
<path d="M177.688 141.955C181.188 135.888 180.021 105.321 176.988 93.8882C186.788 107.655 184.143 131.066 183.054 141.955C180.099 143.977 174.888 146.808 177.688 141.955Z" fill="#FF748C"/>
<path d="M98.0909 115.163L102.921 164.121L133.721 173.921H184.12L190.768 115.203C190.956 113.542 189.657 112.088 187.985 112.088H100.877C99.2224 112.088 97.9285 113.516 98.0909 115.163Z" fill="#ECE6E6"/>
<path fill-rule="evenodd" clip-rule="evenodd" d="M112.331 166.967L134.187 173.921H184.587L191.234 115.203C191.422 113.542 190.123 112.088 188.452 112.088H170.91L112.331 166.967Z" fill="#DDD7D7"/>
<path fill-rule="evenodd" clip-rule="evenodd" d="M152.252 143.999C152.252 144.784 151.859 144.931 151.859 144.931C151.859 144.931 144.895 148.953 144.453 149.198C144.208 149.296 143.963 149.296 143.718 149.198C143.718 149.198 136.459 144.98 136.214 144.784C136.066 144.686 135.968 144.489 135.919 144.293C135.919 144.293 135.919 135.955 135.919 135.563C135.919 135.171 136.41 134.925 136.41 134.925L143.669 130.757C143.963 130.609 144.257 130.609 144.551 130.757C144.551 130.757 150.976 134.484 151.663 134.876C152.055 135.073 152.301 135.465 152.252 135.906C152.252 135.857 152.252 143.263 152.252 143.999ZM149.358 135.661C147.887 134.827 144.355 132.767 144.355 132.767C144.159 132.669 143.865 132.669 143.669 132.767L137.979 136.053C137.979 136.053 137.587 136.299 137.587 136.593C137.587 136.887 137.587 143.41 137.587 143.41C137.587 143.558 137.685 143.705 137.783 143.803C137.979 143.95 143.669 147.236 143.669 147.236C143.865 147.334 144.061 147.334 144.257 147.236C144.6 147.04 150.045 143.901 150.045 143.901C150.045 143.901 150.339 143.754 150.339 143.165C150.339 142.969 150.339 142.331 150.339 141.449L143.963 145.323V143.852C143.963 143.459 144.159 143.116 144.453 142.822L150.143 139.389C150.29 139.192 150.388 138.947 150.388 138.653C150.388 138.015 150.388 137.476 150.388 137.132L143.963 141.007V139.438C143.963 139.094 144.11 138.751 144.355 138.555L149.358 135.661Z" fill="#FF748C"/>
<path fill-rule="evenodd" clip-rule="evenodd" d="M154.066 130.266C154.066 130.168 153.968 130.07 153.87 130.07H152.497V128.648C152.497 128.549 152.399 128.549 152.252 128.549L151.565 128.648C151.467 128.648 151.418 128.697 151.418 128.746V130.07H150.094C149.996 130.07 149.947 130.168 149.898 130.217V131.1H151.467V132.571C151.467 132.669 151.565 132.718 151.712 132.669L152.399 132.571C152.497 132.571 152.546 132.522 152.546 132.473V131.1H154.116V130.266H154.066Z" fill="#FF748C"/>
<path opacity="0.6" d="M286.998 218.398C286.998 233.565 222.751 242.198 143.499 242.198C64.2466 242.198 -0.00012207 234.498 -0.00012207 218.398C-0.00012207 202.299 64.2466 194.599 143.499 194.599C222.751 194.599 286.998 201.599 286.998 218.398Z" fill="#F1F7FF"/>
<path d="M131.154 70.7884C121.121 64.4885 116.921 48.6219 116.454 41.3886C116.687 36.722 117.574 25.9887 119.254 20.3888C121.354 13.3888 152.154 14.7888 160.554 16.8888C168.954 18.9888 167.554 26.9221 168.02 41.3886C168.487 55.8552 158.454 67.2885 155.42 70.0884C152.387 72.8884 141.187 77.0884 131.154 70.7884Z" fill="#FBBDA4"/>
<path d="M143.287 87.8216C133.487 88.2883 130.687 84.3216 128.587 80.1216L133.021 66.5884H152.854L155.887 80.5883C154.954 82.8438 151.127 87.4483 143.287 87.8216Z" fill="#FBBDA4"/>
<path d="M171.987 51.4219C173.387 47.9219 170.587 43.2552 167.787 43.2552C165.92 47.3774 162.7 55.7152 164.754 56.0885C167.32 56.5552 170.587 54.9218 171.987 51.4219Z" fill="#FBBDA4"/>
<path d="M114.48 51.1322C113.349 47.5363 116.494 43.0951 119.286 43.3071C120.835 47.5588 123.415 56.1165 121.339 56.3332C118.744 56.6042 115.611 54.7282 114.48 51.1322Z" fill="#FBBDA4"/>
<path d="M156.354 1.48889C148.887 -2.2444 142.587 1.72221 136.287 5.92218C132.632 5.5333 124.107 6.43552 119.254 13.1555C114.401 19.8754 114.514 37.8065 116.366 44.582C117.035 44.0329 117.929 43.4964 119.245 43.4436C119.245 42.977 118.554 31.5887 119.254 29.4887C119.954 27.3887 120.187 23.4221 124.621 22.4887C129.054 21.5554 133.954 25.7554 143.987 25.7554C154.02 25.7554 155.654 22.7221 161.254 22.2554C164.054 22.7221 166.154 23.8887 167.32 28.0887C168.254 31.4487 167.787 39.9108 167.554 43.4886C168.037 43.4886 169.28 43.2773 170.448 44.6118C170.479 44.4926 170.495 44.4042 170.514 44.333C172.575 36.6083 170.298 20.2427 168.02 14.3221C166.154 9.46883 162.109 7.78884 160.32 7.55551C161.332 7.01107 160.087 3.35554 156.354 1.48889Z" fill="#190E02"/>
<path opacity="0.6" d="M85.1877 217.321C90.5543 217.554 93.5876 218.721 100.821 218.021L105.721 197.954L89.8543 196.787C88.4543 198.11 84.6277 200.521 80.5211 200.521C75.3878 200.521 66.9878 202.621 60.6879 204.954C53.4144 207.648 47.8546 214.754 47.1546 217.321C46.9212 218.721 48.5546 221.054 52.9879 219.887C57.4212 218.721 79.8211 217.087 85.1877 217.321Z" fill="#FF748C"/>
<path fill-rule="evenodd" clip-rule="evenodd" d="M90.0885 217.77C88.553 217.586 87.0036 217.4 85.1867 217.321C79.8201 217.087 57.4203 218.721 52.987 219.887C52.9337 219.901 52.8808 219.915 52.8284 219.928C53.9125 217.793 57.7899 212.997 63.4862 209.854C70.2528 206.121 78.6527 204.721 84.486 204.254C90.3193 203.787 92.4193 202.387 96.3859 199.121L102.637 210.581L100.82 218.021C96.0354 218.484 93.0885 218.13 90.0885 217.77Z" fill="#FF91A5"/>
<path d="M240.587 218.254C240.155 220.413 238.487 221.054 234.987 219.887L218.42 215.921L190.187 217.554L185.054 208.921L189.254 199.121C192.209 198.499 198.587 197.954 200.454 197.954C201.62 199.121 205.12 200.741 210.954 200.988C227.52 201.688 236.153 210.321 238.02 212.421C239.887 214.521 241.053 215.921 240.587 218.254Z" fill="#FF748C"/>
<path d="M205.353 204.487C198.353 203.787 198.587 202.154 191.587 202.387C190.342 207.365 188.367 217.414 190.42 217.787C192.987 218.254 201.156 217.71 211.42 218.021C219.12 218.254 224.487 218.721 234.987 219.887C231.02 209.854 212.353 205.187 205.353 204.487Z" fill="#FF91A5"/>
<path d="M145.854 178.588C135.354 175.321 122.754 167.854 106.421 160.621C104.554 159.786 90.7875 153.854 80.2876 152.221C69.7877 150.588 55.5544 154.788 54.6211 167.621C53.6878 180.454 77.0211 195.154 96.6209 201.921C116.221 208.687 161.487 214.754 172.22 216.387C182.953 218.021 189.953 220.354 193.92 217.087C197.887 213.821 197.887 205.421 193.92 201.221C189.953 197.021 156.354 181.854 145.854 178.588Z" fill="#3F3C7E"/>
<path d="M145.387 184.188C134.887 177.343 110.154 164.121 91.0208 160.854C105.207 164.961 139.554 183.721 140.72 187.454L145.387 184.188Z" fill="#302B7A"/>
<path d="M234.986 164.821C234.122 161.462 228.453 150.821 210.253 152.221C192.753 154.554 175.796 164.975 157.287 173.221C136.054 181.854 115.754 188.854 105.487 195.154C95.0822 201.539 91.0208 204.721 93.1207 212.421C96.854 219.187 94.9874 220.587 118.554 217.087C147.496 212.789 187.05 206.797 211.42 193.988C229.62 184.421 237.086 172.988 234.986 164.821Z" fill="#504D84"/>
</svg>
