<svg width="259" height="173" viewBox="0 0 259 173" fill="none" xmlns="http://www.w3.org/2000/svg">
<path d="M4.74487 9.48812C4.74487 6.86822 6.86866 4.74451 9.48843 4.74451H249.513C252.132 4.74451 254.256 6.86822 254.256 9.48812V163.181C254.256 165.801 252.132 167.925 249.513 167.925H9.48843C6.86861 167.925 4.74487 165.801 4.74487 163.181V9.48812Z" fill="white"/>
<path fill-rule="evenodd" clip-rule="evenodd" d="M9.48718 0H249.513C254.753 0 259 4.24744 259 9.48724V163.18C259 168.42 254.753 172.668 249.513 172.668H9.48718C4.24755 172.668 0 168.42 0 163.18V9.48724C0 4.24744 4.24755 0 9.48718 0ZM9.48718 4.74362C6.86739 4.74362 4.74359 6.86734 4.74359 9.48724V163.18C4.74359 165.8 6.86734 167.924 9.48718 167.924H249.513C252.133 167.924 254.256 165.8 254.256 163.18V9.48724C254.256 6.86734 252.133 4.74362 249.513 4.74362H9.48718Z" fill="#9799AD" fill-opacity="0.42"/>
<path d="M142.311 118.591C142.311 114.399 145.61 111.001 149.679 111.001H229.813C233.883 111.001 237.182 114.399 237.182 118.591V131.873C237.182 136.065 233.883 139.463 229.813 139.463H149.679C145.61 139.463 142.311 136.065 142.311 131.873V118.591Z" fill="#FF91A5"/>
<path fill-rule="evenodd" clip-rule="evenodd" d="M140.888 118.591C140.888 113.089 145.348 108.629 150.849 108.629H228.17C233.671 108.629 238.131 113.089 238.131 118.591V131.873C238.131 137.375 233.671 141.835 228.17 141.835H150.849C145.348 141.835 140.888 137.375 140.888 131.873V118.591ZM150.849 113.373C147.968 113.373 145.631 115.709 145.631 118.591V131.873C145.631 134.755 147.968 137.091 150.849 137.091H228.17C231.052 137.091 233.388 134.755 233.388 131.873V118.591C233.388 115.709 231.052 113.373 228.17 113.373H150.849Z" fill="#05060F"/>
<path d="M4.74487 9.48812C4.74487 6.86822 6.86869 4.74451 9.4885 4.74451H122.387V167.925H9.4885C6.86869 167.925 4.74487 165.801 4.74487 163.181V9.48812Z" fill="#FF91A5"/>
<path fill-rule="evenodd" clip-rule="evenodd" d="M120.01 4.74451V167.925H124.754V4.74451H120.01Z" fill="#05060F"/>
<path d="M44.1183 66.8846C44.1183 70.4651 41.2157 73.3672 37.6353 73.3672C34.055 73.3672 31.1525 70.4651 31.1525 66.8846C31.1525 63.3041 34.055 60.4015 37.6353 60.4015C41.2157 60.4015 44.1183 63.3041 44.1183 66.8846Z" fill="white"/>
<path fill-rule="evenodd" clip-rule="evenodd" d="M78.8862 73.2923C76.3849 69.0041 70.1883 69.0041 67.687 73.2923L58.4455 89.1351L54.5044 82.6861C51.9766 78.5497 45.9688 78.5497 43.4409 82.6861L31.3925 102.402C28.7526 106.722 31.8616 112.265 36.9241 112.265H57.0783H90.3335C95.3371 112.265 98.4541 106.837 95.9334 102.515L78.8862 73.2923Z" fill="white"/>
<path fill-rule="evenodd" clip-rule="evenodd" d="M37.6326 62.7728C35.3623 62.7728 33.5215 64.6133 33.5215 66.8841C33.5215 69.1544 35.3623 70.9949 37.6326 70.9949C39.9034 70.9949 41.7439 69.1544 41.7439 66.8841C41.7439 64.6133 39.9034 62.7728 37.6326 62.7728ZM28.7779 66.8841C28.7779 61.9934 32.7424 58.0292 37.6326 58.0292C42.5228 58.0292 46.4875 61.9934 46.4875 66.8841C46.4875 71.7743 42.5228 75.7386 37.6326 75.7386C32.7424 75.7386 28.7779 71.7743 28.7779 66.8841ZM76.8407 74.4872C75.254 71.7677 71.3249 71.7677 69.7381 74.4872L60.4972 90.3295C60.0764 91.0506 59.3075 91.4974 58.4726 91.506C57.6377 91.5145 56.8598 91.0838 56.4243 90.3713L52.4838 83.9223C50.8805 81.2991 47.0709 81.2991 45.4676 83.9223L33.4195 103.638C31.7454 106.377 33.7169 109.893 36.9272 109.893H90.3362C93.5092 109.893 95.4858 106.451 93.8873 103.71L76.8407 74.4872ZM65.6411 72.0969C69.0579 66.2395 77.5209 66.2395 80.9377 72.0969L97.9848 101.32C101.428 107.223 97.1698 114.636 90.3362 114.636H36.9272C30.0125 114.636 25.7661 107.065 29.3719 101.164L41.4204 81.449C44.8727 75.7988 53.0787 75.7988 56.5311 81.449L58.401 84.5086L65.6411 72.0969Z" fill="#05060F"/>
<path fill-rule="evenodd" clip-rule="evenodd" d="M140.888 39.3715C140.888 34.9177 144.498 31.3074 148.952 31.3074H230.067C234.521 31.3074 238.131 34.9177 238.131 39.3715V49.3331C238.131 53.7869 234.521 57.3972 230.067 57.3972H148.952C144.498 57.3972 140.888 53.7869 140.888 49.3331V39.3715ZM148.952 36.051C147.118 36.051 145.631 37.5376 145.631 39.3715V49.3331C145.631 51.167 147.118 52.6536 148.952 52.6536H230.067C231.901 52.6536 233.388 51.167 233.388 49.3331V39.3715C233.388 37.5376 231.901 36.051 230.067 36.051H148.952Z" fill="#05060F"/>
<path fill-rule="evenodd" clip-rule="evenodd" d="M140.888 73.0514C140.888 68.5977 144.498 64.9873 148.952 64.9873H230.067C234.521 64.9873 238.131 68.5977 238.131 73.0514V83.013C238.131 87.4668 234.521 91.0772 230.067 91.0772H148.952C144.498 91.0772 140.888 87.4668 140.888 83.013V73.0514ZM148.952 69.7309C147.118 69.7309 145.631 71.2176 145.631 73.0514V83.013C145.631 84.8469 147.118 86.3336 148.952 86.3336H230.067C231.901 86.3336 233.388 84.8469 233.388 83.013V73.0514C233.388 71.2176 231.901 69.7309 230.067 69.7309H148.952Z" fill="#05060F"/>
</svg>
